<?xml version="1.0" encoding="UTF-8"?>
<svg width="344px" height="80px" viewBox="0 0 344 80" version="1.1" xmlns="http://www.w3.org/2000/svg" xmlns:xlink="http://www.w3.org/1999/xlink">
    <!-- Generator: Sketch 59 (86127) - https://sketch.com -->
    <title>Artboard</title>
    <desc>Created with Sketch.</desc>
    <g id="Artboard" stroke="none" stroke-width="1" fill="none" fill-rule="evenodd">
        <g id="logomark" transform="translate(1.000000, 4.000000)" fill="#FFFFFF" fill-rule="nonzero">
            <g id="Group">
                <path d="M17.2804472,0.0254892718 L17.2804472,19.4785617 L35.7675279,19.4785617 L35.7675279,34.068366 L17.2804472,34.068366 L17.2804472,51.0898043 L0.0258384399,51.0898043 L0.0258384399,72.9745107 L20.9778633,72.9745107 L20.9778633,54.7372554 L39.4649441,54.7372554 L39.4649441,37.715817 L53.0221367,37.715817 L53.0221367,54.7372554 L73.9741616,54.7372554 L73.9741616,0.0254892718 L17.2804472,0.0254892718 Z M17.2804472,69.3270597 L3.7232546,69.3270597 L3.7232546,54.7372554 L17.2804472,54.7372554 L17.2804472,69.3270597 Z M70.2767454,51.0898043 L56.7195528,51.0898043 L56.7195528,34.068366 L39.4649441,34.068366 L39.4649441,15.8311106 L20.9778633,15.8311106 L20.9778633,3.67294034 L70.2767454,3.67294034 L70.2767454,51.0898043 Z" id="Shape"></path>
            </g>
        </g>
        <text id="digitalshore" font-family="Mark-Bold" font-size="45" font-weight="bold" fill="#FFFFFF">
            <tspan x="84.04" y="53">digital</tspan>
            <tspan x="223.765" y="53" font-family="Mark-Regular" font-weight="normal">shore</tspan>
        </text>
    </g>
</svg>