<svg width="24" height="24" viewBox="0 0 24 24" fill="none" xmlns="http://www.w3.org/2000/svg">
<path d="M21.9951 22V21.9992H22.0001V14.6642C22.0001 11.0758 21.2276 8.31165 17.0326 8.31165C15.0159 8.31165 13.6626 9.41831 13.1101 10.4675H13.0517V8.64665H9.07422V21.9992H13.2159V15.3875C13.2159 13.6467 13.5459 11.9633 15.7017 11.9633C17.8259 11.9633 17.8576 13.95 17.8576 15.4992V22H21.9951Z" fill="#373737"/>
<path d="M2.33008 8.64746H6.47675V22H2.33008V8.64746Z" fill="#373737"/>
<path d="M4.40167 2C3.07583 2 2 3.07583 2 4.40167C2 5.7275 3.07583 6.82583 4.40167 6.82583C5.7275 6.82583 6.80333 5.7275 6.80333 4.40167C6.8025 3.07583 5.72667 2 4.40167 2V2Z" fill="#373737"/>
</svg>
