<svg width="24" height="24" viewBox="0 0 24 24" fill="none" xmlns="http://www.w3.org/2000/svg">
<path d="M22.5 5.77246C21.7271 6.10039 20.8978 6.32279 20.0264 6.42208C20.9161 5.91193 21.5972 5.10275 21.92 4.14152C21.0854 4.61395 20.1642 4.957 19.1826 5.14297C18.3966 4.34007 17.2785 3.83997 16.0384 3.83997C13.6593 3.83997 11.7303 5.68703 11.7303 7.96382C11.7303 8.28673 11.7683 8.60211 11.8418 8.9037C8.26201 8.73153 5.08768 7.08929 2.96314 4.59385C2.59176 5.20201 2.38049 5.91065 2.38049 6.66709C2.38049 8.09827 3.14161 9.36105 4.2964 10.0999C3.5904 10.0772 2.92639 9.89128 2.34508 9.58217V9.63369C2.34508 11.6315 3.83056 13.2989 5.80024 13.6784C5.43936 13.7714 5.05882 13.8229 4.66514 13.8229C4.38696 13.8229 4.11794 13.7965 3.85417 13.7462C4.40267 15.386 5.99315 16.5784 7.87756 16.6111C6.40388 17.7168 4.54573 18.374 2.52749 18.374C2.17976 18.374 1.83724 18.3539 1.5 18.3174C3.40671 19.4898 5.67036 20.1733 8.10327 20.1733C16.028 20.1733 20.3597 13.8882 20.3597 8.43754L20.3453 7.90353C21.1917 7.32549 21.9239 6.59924 22.5 5.77246Z" fill="#373737"/>
</svg>
